<svg width="193" height="93" viewBox="0 0 193 93" fill="none"
  xmlns="http://www.w3.org/2000/svg">
  <path
    d="M0.847656 84V58.4727H5.73047V79.8789H16.5117V84H0.847656ZM38.9922 72.5547C38.9922 72.8802 38.9792 73.3034 38.9531 73.8242C38.9401 74.3451 38.9141 74.8333 38.875 75.2891H25.8281C25.8281 76.1615 25.9583 76.9297 26.2188 77.5938C26.4922 78.2578 26.8698 78.8177 27.3516 79.2734C27.8464 79.7161 28.4323 80.0547 29.1094 80.2891C29.7995 80.5234 30.5612 80.6406 31.3945 80.6406C32.3581 80.6406 33.3867 80.569 34.4805 80.4258C35.5872 80.2695 36.7331 80.0221 37.918 79.6836V83.4727C37.4102 83.6159 36.8568 83.7461 36.2578 83.8633C35.6589 83.9805 35.0469 84.0846 34.4219 84.1758C33.7969 84.2669 33.1654 84.332 32.5273 84.3711C31.8893 84.4232 31.2708 84.4492 30.6719 84.4492C29.1615 84.4492 27.8073 84.2344 26.6094 83.8047C25.4115 83.375 24.3958 82.7435 23.5625 81.9102C22.7292 81.0638 22.0911 80.0221 21.6484 78.7852C21.2057 77.5482 20.9844 76.1159 20.9844 74.4883C20.9844 72.8737 21.2057 71.4089 21.6484 70.0938C22.0911 68.7656 22.7161 67.6328 23.5234 66.6953C24.3307 65.7448 25.3073 65.0156 26.4531 64.5078C27.612 63.987 28.901 63.7266 30.3203 63.7266C31.7266 63.7266 32.9701 63.9479 34.0508 64.3906C35.1315 64.8203 36.0365 65.4258 36.7656 66.207C37.4948 66.9883 38.0482 67.9193 38.4258 69C38.8034 70.0807 38.9922 71.2656 38.9922 72.5547ZM34.1484 71.8711C34.1615 71.0898 34.0638 70.4128 33.8555 69.8398C33.6471 69.2539 33.3607 68.7721 32.9961 68.3945C32.6445 68.0169 32.2279 67.737 31.7461 67.5547C31.2773 67.3724 30.7695 67.2812 30.2227 67.2812C29.0247 67.2812 28.0417 67.6849 27.2734 68.4922C26.5052 69.2865 26.0495 70.4128 25.9062 71.8711H34.1484ZM56.1406 84L56.0234 81.4023C55.6068 81.8451 55.1706 82.2552 54.7148 82.6328C54.2591 82.9974 53.7578 83.3164 53.2109 83.5898C52.6641 83.8633 52.0651 84.0716 51.4141 84.2148C50.776 84.3711 50.0729 84.4492 49.3047 84.4492C48.2891 84.4492 47.3971 84.2995 46.6289 84C45.8607 83.7005 45.2161 83.2839 44.6953 82.75C44.1745 82.2161 43.7773 81.5716 43.5039 80.8164C43.2435 80.0612 43.1133 79.2279 43.1133 78.3164C43.1133 77.3789 43.3086 76.513 43.6992 75.7188C44.1029 74.9245 44.7083 74.2409 45.5156 73.668C46.3359 73.0951 47.3516 72.6458 48.5625 72.3203C49.7865 71.9948 51.2188 71.832 52.8594 71.832H55.457V70.6406C55.457 70.1328 55.3854 69.6771 55.2422 69.2734C55.099 68.8568 54.8646 68.5052 54.5391 68.2188C54.2266 67.9323 53.8164 67.7109 53.3086 67.5547C52.8008 67.3984 52.1758 67.3203 51.4336 67.3203C50.2617 67.3203 49.1029 67.457 47.957 67.7305C46.8242 67.9909 45.724 68.362 44.6562 68.8438V65.0352C45.6068 64.6576 46.7005 64.3451 47.9375 64.0977C49.1875 63.8503 50.4831 63.7266 51.8242 63.7266C53.2956 63.7266 54.5586 63.8698 55.6133 64.1562C56.668 64.4297 57.5339 64.8464 58.2109 65.4062C58.901 65.9661 59.4089 66.6693 59.7344 67.5156C60.0599 68.349 60.2227 69.3255 60.2227 70.4453V84H56.1406ZM55.457 75.2305H52.5469C51.7396 75.2305 51.056 75.3086 50.4961 75.4648C49.9362 75.6211 49.4805 75.8359 49.1289 76.1094C48.7773 76.3828 48.5169 76.7018 48.3477 77.0664C48.1914 77.418 48.1133 77.7956 48.1133 78.1992C48.1133 79.0065 48.3737 79.625 48.8945 80.0547C49.4154 80.4714 50.125 80.6797 51.0234 80.6797C51.6875 80.6797 52.3776 80.4388 53.0938 79.957C53.8099 79.4753 54.5977 78.7852 55.457 77.8867V75.2305ZM78.4648 71.8711C78.4909 71.1289 78.4518 70.4974 78.3477 69.9766C78.2565 69.4557 78.1003 69.026 77.8789 68.6875C77.6706 68.349 77.4102 68.1016 77.0977 67.9453C76.7852 67.7891 76.4271 67.7109 76.0234 67.7109C75.3203 67.7109 74.5911 68.0039 73.8359 68.5898C73.0938 69.1628 72.2734 70.1133 71.375 71.4414V84H66.4922V64.1562H70.8086L70.9844 67.0469C71.3099 66.5391 71.6745 66.0833 72.0781 65.6797C72.4948 65.276 72.9505 64.931 73.4453 64.6445C73.9531 64.3451 74.513 64.1172 75.125 63.9609C75.737 63.8047 76.4076 63.7266 77.1367 63.7266C78.1393 63.7266 79.0247 63.9023 79.793 64.2539C80.5742 64.5924 81.2253 65.1003 81.7461 65.7773C82.2799 66.4544 82.6706 67.3073 82.918 68.3359C83.1784 69.3516 83.2891 70.5299 83.25 71.8711H78.4648ZM99.5195 84V71.0703C99.5195 68.8958 98.7122 67.8086 97.0977 67.8086C96.2904 67.8086 95.5156 68.1341 94.7734 68.7852C94.0443 69.4362 93.2695 70.3216 92.4492 71.4414V84H87.6836V64.1562H91.8047L91.9219 67.0859C92.3255 66.5781 92.7422 66.1159 93.1719 65.6992C93.6146 65.2826 94.0898 64.931 94.5977 64.6445C95.1055 64.3451 95.6523 64.1172 96.2383 63.9609C96.8242 63.8047 97.4818 63.7266 98.2109 63.7266C99.2266 63.7266 100.112 63.8958 100.867 64.2344C101.622 64.5599 102.254 65.0286 102.762 65.6406C103.27 66.2396 103.647 66.9688 103.895 67.8281C104.155 68.6745 104.285 69.625 104.285 70.6797V84H99.5195ZM121.609 81.832C120.919 83.5508 120.197 85.0547 119.441 86.3438C118.699 87.6458 117.879 88.7266 116.98 89.5859C116.082 90.4583 115.079 91.1094 113.973 91.5391C112.879 91.9818 111.648 92.2031 110.281 92.2031C109.956 92.2031 109.598 92.1836 109.207 92.1445C108.829 92.1185 108.439 92.0729 108.035 92.0078V87.9648C108.191 87.9909 108.367 88.0169 108.562 88.043C108.771 88.082 108.986 88.1081 109.207 88.1211C109.428 88.1471 109.65 88.1667 109.871 88.1797C110.105 88.1927 110.32 88.1992 110.516 88.1992C111.062 88.1992 111.57 88.0951 112.039 87.8867C112.508 87.6784 112.938 87.3854 113.328 87.0078C113.732 86.6432 114.096 86.2005 114.422 85.6797C114.747 85.1719 115.034 84.612 115.281 84L107.41 64.1562H112.723L116.844 75.4062L118.074 79.0391L119.285 75.5625L123.445 64.1562H128.562L121.609 81.832ZM132.801 84V58.4727H137.684V79.8789H148.465V84H132.801ZM167.82 84L167.352 69.5664L167.176 63.8047L165.945 67.7109L163.113 76.4023H160.105L157.547 67.7109L156.473 63.8047L156.336 69.4492L155.906 84H151.824L153.074 58.4727H158.504L160.75 65.7188L161.824 69.8008L162.898 65.9531L165.262 58.4727H170.789L172.059 84H167.82ZM192.859 76.2852C192.859 77.6784 192.599 78.8893 192.078 79.918C191.57 80.9466 190.854 81.7995 189.93 82.4766C189.005 83.1406 187.905 83.6354 186.629 83.9609C185.353 84.2865 183.96 84.4492 182.449 84.4492C181.108 84.4492 179.812 84.3711 178.562 84.2148C177.312 84.0586 176.076 83.7982 174.852 83.4336V78.6875C175.451 78.8958 176.076 79.0911 176.727 79.2734C177.378 79.4557 178.029 79.6185 178.68 79.7617C179.344 79.8919 180.001 79.9961 180.652 80.0742C181.303 80.1523 181.935 80.1914 182.547 80.1914C183.458 80.1914 184.233 80.1133 184.871 79.957C185.509 79.8008 186.03 79.5859 186.434 79.3125C186.837 79.0391 187.13 78.7135 187.312 78.3359C187.495 77.9583 187.586 77.5417 187.586 77.0859C187.586 76.4609 187.404 75.9401 187.039 75.5234C186.688 75.0938 186.219 74.7161 185.633 74.3906C185.047 74.0651 184.376 73.7721 183.621 73.5117C182.879 73.2513 182.117 72.9714 181.336 72.6719C180.568 72.3724 179.806 72.0339 179.051 71.6562C178.309 71.2786 177.645 70.8099 177.059 70.25C176.473 69.6901 175.997 69.026 175.633 68.2578C175.281 67.4766 175.105 66.5391 175.105 65.4453C175.105 64.4427 175.288 63.4922 175.652 62.5938C176.017 61.6953 176.59 60.9141 177.371 60.25C178.152 59.5729 179.155 59.0391 180.379 58.6484C181.603 58.2448 183.081 58.043 184.812 58.043C185.32 58.043 185.848 58.069 186.395 58.1211C186.954 58.1602 187.501 58.2188 188.035 58.2969C188.582 58.362 189.103 58.4466 189.598 58.5508C190.105 58.6419 190.568 58.7396 190.984 58.8438V63.2383C190.568 63.082 190.112 62.9388 189.617 62.8086C189.122 62.6784 188.608 62.5677 188.074 62.4766C187.553 62.3724 187.026 62.2943 186.492 62.2422C185.958 62.1901 185.451 62.1641 184.969 62.1641C184.122 62.1641 183.406 62.2357 182.82 62.3789C182.234 62.5091 181.753 62.6979 181.375 62.9453C180.997 63.1797 180.724 63.4727 180.555 63.8242C180.385 64.1758 180.301 64.5664 180.301 64.9961C180.301 65.5299 180.477 65.9922 180.828 66.3828C181.193 66.7604 181.668 67.1055 182.254 67.418C182.853 67.7174 183.523 68.0039 184.266 68.2773C185.021 68.5378 185.789 68.8242 186.57 69.1367C187.365 69.4362 188.133 69.7812 188.875 70.1719C189.63 70.5625 190.301 71.0378 190.887 71.5977C191.486 72.1576 191.961 72.8216 192.312 73.5898C192.677 74.3451 192.859 75.2435 192.859 76.2852Z"
    fill="url(#paint0_linear_0_1)" />
  <g filter="url(#filter0_d_0_1)">
    <rect x="76" width="40" height="40" rx="8" fill="url(#paint1_linear_0_1)" />
  </g>
  <g filter="url(#filter1_d_0_1)">
    <path
      d="M94.6652 7.54667L101.571 8.27251C102.335 8.35279 102.776 8.75304 102.893 9.47325L107.856 30.5233C107.87 30.5892 107.87 30.6964 107.854 30.8449C107.841 30.9722 107.752 31.1023 107.588 31.2352C107.447 31.3491 107.281 31.3961 107.09 31.376L101.203 30.7572C100.566 30.6903 100.181 30.3816 100.045 29.8311L99.5023 27.6504L92.66 26.9313L91.6754 28.9514C91.4287 29.4618 90.9871 29.6835 90.3506 29.6166L84.4631 28.9978C84.2721 28.9777 84.1091 28.8962 83.9739 28.7533C83.8622 28.5914 83.8131 28.4468 83.8265 28.3195C83.8421 28.171 83.8638 28.066 83.8917 28.0046L93.1227 8.44636C93.3872 7.76629 93.9014 7.46639 94.6652 7.54667ZM94.9353 20.896L98.5315 21.274L97.3396 15.1639L94.9353 20.896Z"
      fill="white" />
  </g>
  <defs>
    <filter id="filter0_d_0_1" x="73" y="0" width="48" height="48"
      filterUnits="userSpaceOnUse" color-interpolation-filters="sRGB">
      <feFlood flood-opacity="0" result="BackgroundImageFix" />
      <feColorMatrix in="SourceAlpha" type="matrix"
        values="0 0 0 0 0 0 0 0 0 0 0 0 0 0 0 0 0 0 127 0" result="hardAlpha" />
      <feOffset dx="1" dy="4" />
      <feGaussianBlur stdDeviation="2" />
      <feComposite in2="hardAlpha" operator="out" />
      <feColorMatrix type="matrix"
        values="0 0 0 0 0 0 0 0 0 0 0 0 0 0 0 0 0 0 0.25 0" />
      <feBlend mode="normal" in2="BackgroundImageFix"
        result="effect1_dropShadow_0_1" />
      <feBlend mode="normal" in="SourceGraphic" in2="effect1_dropShadow_0_1"
        result="shape" />
    </filter>
    <filter id="filter1_d_0_1" x="80.7629" y="6.64697" width="34.369"
      height="32.8027" filterUnits="userSpaceOnUse"
      color-interpolation-filters="sRGB">
      <feFlood flood-opacity="0" result="BackgroundImageFix" />
      <feColorMatrix in="SourceAlpha" type="matrix"
        values="0 0 0 0 0 0 0 0 0 0 0 0 0 0 0 0 0 0 127 0" result="hardAlpha" />
      <feOffset dx="1" dy="4" />
      <feGaussianBlur stdDeviation="2" />
      <feComposite in2="hardAlpha" operator="out" />
      <feColorMatrix type="matrix"
        values="0 0 0 0 0 0 0 0 0 0 0 0 0 0 0 0 0 0 0.25 0" />
      <feBlend mode="normal" in2="BackgroundImageFix"
        result="effect1_dropShadow_0_1" />
      <feBlend mode="normal" in="SourceGraphic" in2="effect1_dropShadow_0_1"
        result="shape" />
    </filter>
    <linearGradient id="paint0_linear_0_1" x1="32.7383" y1="98" x2="159.262"
      y2="51" gradientUnits="userSpaceOnUse">
      <stop stop-color="#3D414A" />
      <stop offset="0.46" stop-color="#0725C5" />
      <stop offset="0.925" stop-color="#99A9FF" />
    </linearGradient>
    <linearGradient id="paint1_linear_0_1" x1="56.5" y1="40" x2="116" y2="20"
      gradientUnits="userSpaceOnUse">
      <stop stop-color="#232529" />
      <stop offset="0.532115" stop-color="#0725C5" />
      <stop offset="1" stop-color="#99A9FF" />
    </linearGradient>
  </defs>
</svg>
  